<svg width="22" height="22" viewBox="0 0 22 22" fill="none" xmlns="http://www.w3.org/2000/svg">
<path d="M21.9648 1.92197C21.9648 0.909503 21.1454 0.0943824 20.1372 0.0943824L5.49939 0C4.48693 0 3.67181 0.819411 3.67181 1.82759C3.67181 2.83576 4.49122 3.65517 5.49939 3.65517H15.6712L0.540028 18.825C-0.17642 19.5372 -0.18071 20.6955 0.531448 21.4119L0.540028 21.4205C1.25219 22.137 2.41052 22.1413 3.12696 21.4291L3.13554 21.4205L18.3011 6.25498V16.4654C18.3011 17.4779 19.1205 18.293 20.1287 18.293C21.1411 18.293 21.9563 17.4736 21.9563 16.4654V1.92197H21.9648Z" fill="#FFD700"/>
</svg>
