<svg width="221" height="67" viewBox="0 0 221 67" fill="none" xmlns="http://www.w3.org/2000/svg">
<path fill-rule="evenodd" clip-rule="evenodd" d="M208.073 19.8993C205.293 19.6796 202.514 20.329 200.119 21.7577C188.796 28.4838 175.823 31.9203 162.655 31.6814H116.047C93.8715 31.7688 72.4586 23.5932 55.9843 8.74909C51.2325 4.42569 45.3318 1.56896 38.9932 0.523259C32.6547 -0.522439 26.149 0.287538 20.2604 2.85555C14.3717 5.42357 9.35159 9.63999 5.80506 14.9965C2.25854 20.3531 0.337043 26.6211 0.272204 33.045C0.207365 39.4689 2.00195 45.7744 5.43963 51.2015C8.87732 56.6285 13.8113 60.9454 19.6469 63.6318C25.4825 66.3181 31.9705 67.2592 38.3289 66.3417C44.6872 65.4242 50.6445 62.6871 55.4825 58.4605C72.1578 43.537 93.6885 35.1823 116.065 34.9521H164.922C177.427 35.0908 189.669 38.5681 200.38 45.0245C202.464 46.2479 204.839 46.8888 207.257 46.8802C209.674 46.8716 212.044 46.2137 214.12 44.9754C216.196 43.737 217.901 41.9637 219.057 39.8409C220.213 37.718 220.778 35.3236 220.692 32.9079C220.546 29.5707 219.181 26.4028 216.855 24.0051C214.529 21.6074 211.405 20.1464 208.073 19.8993ZM43.9503 53.2074C54.9276 47.995 59.601 34.8706 54.3886 23.8933C49.1761 12.916 36.0518 8.2426 25.0745 13.455C14.0971 18.6674 9.42378 31.7918 14.6362 42.7691C19.8486 53.7464 32.973 58.4198 43.9503 53.2074ZM35.1719 39.0068H37.2188V28.6709C37.2188 28.4365 37.1484 28.2282 37.0078 28.0459C36.8672 27.8636 36.6875 27.7412 36.4688 27.6787C36.2396 27.6214 36.0182 27.6344 35.8047 27.7178C35.5964 27.8011 35.4323 27.9417 35.3125 28.1396L30.6875 36.1787L26.0625 28.1396C26.0052 28.0407 25.9349 27.9574 25.8516 27.8896C25.7682 27.8167 25.6745 27.762 25.5703 27.7256C25.4714 27.6839 25.3672 27.6605 25.2578 27.6553C25.1484 27.6449 25.0391 27.6527 24.9297 27.6787C24.7057 27.7412 24.5234 27.8636 24.3828 28.0459C24.2474 28.2282 24.1797 28.4365 24.1797 28.6709V39.0068H26.2109V32.335L29.8281 38.6709C29.9167 38.8324 30.0365 38.9548 30.1875 39.0381C30.3438 39.1214 30.5104 39.1631 30.6875 39.1631C30.8698 39.1631 31.0391 39.1214 31.1953 39.0381C31.3568 38.9548 31.4818 38.8324 31.5703 38.6709L35.1719 32.335V39.0068ZM40.4769 39.0068H42.5159V27.8037H38.6409V29.835H40.4769V39.0068Z" fill="#FFD700"/>
</svg>
