<svg width="221" height="68" viewBox="0 0 221 68" fill="none" xmlns="http://www.w3.org/2000/svg">
<path d="M32.1719 40.0068H34.2187V29.6709C34.2187 29.4365 34.1484 29.2282 34.0078 29.0459C33.8672 28.8636 33.6875 28.7412 33.4687 28.6787C33.2396 28.6214 33.0182 28.6344 32.8047 28.7178C32.5964 28.8011 32.4323 28.9417 32.3125 29.1396L27.6875 37.1787L23.0625 29.1396C23.0052 29.0407 22.9349 28.9574 22.8516 28.8896C22.7682 28.8167 22.6745 28.762 22.5703 28.7256C22.4714 28.6839 22.3672 28.6605 22.2578 28.6553C22.1484 28.6449 22.0391 28.6527 21.9297 28.6787C21.7057 28.7412 21.5234 28.8636 21.3828 29.0459C21.2474 29.2282 21.1797 29.4365 21.1797 29.6709V40.0068H23.2109V33.335L26.8281 39.6709C26.9167 39.8324 27.0365 39.9548 27.1875 40.0381C27.3438 40.1214 27.5104 40.1631 27.6875 40.1631C27.8698 40.1631 28.0391 40.1214 28.1953 40.0381C28.3568 39.9548 28.4818 39.8324 28.5703 39.6709L32.1719 33.335V40.0068Z" fill="#FFD700"/>
<path d="M35.9144 40.0068H46.2034V37.9756H37.9456V36.249C37.9612 36.1501 37.9821 36.0511 38.0081 35.9521C38.0342 35.8532 38.0732 35.7646 38.1253 35.6865C38.1826 35.6084 38.2607 35.5459 38.3597 35.499C38.4586 35.4521 38.5915 35.4287 38.7581 35.4287H43.3519C43.6383 35.4287 43.9456 35.3792 44.2737 35.2803C44.6071 35.1761 44.917 35.012 45.2034 34.7881C45.4899 34.5589 45.7269 34.2646 45.9144 33.9053C46.1071 33.5407 46.2034 33.0954 46.2034 32.5693V31.6553C46.2034 31.4678 46.18 31.2673 46.1331 31.0537C46.0915 30.835 46.0211 30.6214 45.9222 30.4131C45.8284 30.1995 45.706 29.9964 45.555 29.8037C45.404 29.611 45.2217 29.4417 45.0081 29.2959C44.7998 29.1449 44.5576 29.0251 44.2816 28.9365C44.0055 28.848 43.6956 28.8037 43.3519 28.8037H36.8284V30.835H43.3519C43.6123 30.835 43.8102 30.9053 43.9456 31.0459C44.081 31.1865 44.1487 31.3949 44.1487 31.6709V32.5693C44.1487 32.835 44.081 33.0381 43.9456 33.1787C43.8154 33.3141 43.6123 33.3818 43.3362 33.3818H38.7581C38.4092 33.3818 38.0967 33.4261 37.8206 33.5146C37.5446 33.6032 37.2998 33.723 37.0862 33.874C36.8779 34.0199 36.6982 34.1891 36.5472 34.3818C36.4014 34.5745 36.2816 34.7777 36.1878 34.9912C36.0941 35.2048 36.0237 35.4209 35.9769 35.6396C35.9352 35.8532 35.9144 36.0563 35.9144 36.249V40.0068Z" fill="#FFD700"/>
<path fill-rule="evenodd" clip-rule="evenodd" d="M200.157 22.4296C202.526 20.963 205.292 20.2682 208.074 20.4411C210.102 20.5787 212.072 21.1728 213.838 22.1788C215.604 23.1849 217.12 24.577 218.273 26.2511C219.425 27.9253 220.185 29.8383 220.494 31.8471C220.804 33.8559 220.656 35.9088 220.061 37.8522C219.465 39.7957 218.439 41.5796 217.058 43.0707C215.676 44.5618 213.976 45.7215 212.084 46.4632C210.191 47.205 208.156 47.5096 206.129 47.3543C204.103 47.1989 202.137 46.5877 200.38 45.5663C189.673 39.1016 177.429 35.6236 164.922 35.4939H116.066C93.6888 35.7241 72.1581 44.0788 55.4828 59.0023C50.6439 63.2261 44.6869 65.9605 38.3294 66.8759C31.9719 67.7913 25.4854 66.8487 19.6514 64.1616C13.8175 61.4745 8.88507 57.1577 5.44858 51.7313C2.01208 46.3049 0.218143 40.0005 0.282946 33.5778C0.347749 27.1551 2.26852 20.8882 5.81381 15.5323C9.35909 10.1763 14.3776 5.9599 20.2646 3.39111C26.1516 0.822313 32.6558 0.0107626 38.9935 1.05425C45.3312 2.09774 51.2319 4.95174 55.9846 9.27233C72.4395 24.1637 93.8545 32.3864 116.047 32.3347H162.692C175.857 32.5714 188.829 29.1419 200.157 22.4296ZM55.2226 33.8586C55.2226 46.0106 45.3715 55.8617 33.2195 55.8617C21.0675 55.8617 11.2164 46.0106 11.2164 33.8586C11.2164 21.7066 21.0675 11.8555 33.2195 11.8555C45.3715 11.8555 55.2226 21.7066 55.2226 33.8586Z" fill="#FFD700"/>
</svg>
