<svg width="222" height="68" viewBox="0 0 222 68" fill="none" xmlns="http://www.w3.org/2000/svg">
<path d="M33.1714 40.0068H35.2183V29.6709C35.2183 29.4365 35.1479 29.2282 35.0073 29.0459C34.8667 28.8636 34.687 28.7412 34.4683 28.6787C34.2391 28.6214 34.0177 28.6344 33.8042 28.7178C33.5959 28.8011 33.4318 28.9417 33.312 29.1396L28.687 37.1787L24.062 29.1396C24.0047 29.0407 23.9344 28.9574 23.8511 28.8896C23.7677 28.8167 23.674 28.762 23.5698 28.7256C23.4709 28.6839 23.3667 28.6605 23.2573 28.6553C23.1479 28.6449 23.0386 28.6527 22.9292 28.6787C22.7052 28.7412 22.5229 28.8636 22.3823 29.0459C22.2469 29.2282 22.1792 29.4365 22.1792 29.6709V40.0068H24.2104V33.335L27.8276 39.6709C27.9162 39.8324 28.036 39.9548 28.187 40.0381C28.3433 40.1214 28.5099 40.1631 28.687 40.1631C28.8693 40.1631 29.0386 40.1214 29.1948 40.0381C29.3563 39.9548 29.4813 39.8324 29.5698 39.6709L33.1714 33.335V40.0068Z" fill="#262626"/>

<path d="M46.2108 38.4912C46.4035 38.1266 46.4998 37.6813 46.4998 37.1553V31.6553C46.4998 31.4678 46.4764 31.2673 46.4295 31.0537C46.3878 30.835 46.3201 30.6214 46.2264 30.4131C46.1326 30.1995 46.0102 29.9964 45.8592 29.8037C45.7082 29.611 45.5259 29.4417 45.3123 29.2959C45.104 29.1449 44.8618 29.0251 44.5858 28.9365C44.3097 28.848 43.9972 28.8037 43.6483 28.8037H37.1326V30.835H43.6483C44.1899 30.835 44.4608 31.1136 44.4608 31.6709V33.3818H37.1326V35.4287H44.4608V37.1553C44.4608 37.4209 44.3931 37.624 44.2576 37.7646C44.1274 37.9053 43.9243 37.9756 43.6483 37.9756H37.1326V40.0068H43.6483C43.9347 40.0068 44.2446 39.9574 44.5779 39.8584C44.9113 39.7594 45.2186 39.598 45.4998 39.374C45.7863 39.1449 46.0233 38.8506 46.2108 38.4912Z" fill="#262626"/>
<path fill-rule="evenodd" clip-rule="evenodd"
d="M200.822 22.5939C203.187 21.118 205.956 20.4224 208.738 20.6054C210.78 20.7225 212.769 21.3024 214.554 22.3012C216.339 23.3 217.874 24.6916 219.042 26.3708C220.21 28.0499 220.981 29.9726 221.296 31.9936C221.612 34.0145 221.464 36.0808 220.863 38.0361C220.263 39.9914 219.225 41.7845 217.83 43.28C216.434 44.7754 214.717 45.9339 212.808 46.668C210.899 47.4021 208.848 47.6925 206.81 47.5172C204.772 47.3419 202.8 46.7056 201.045 45.6562C190.33 39.2176 178.087 35.7654 165.587 35.6582H116.73C94.3572 35.89 72.8292 44.2371 56.1475 59.148C51.3095 63.3746 45.3523 66.1117 38.9939 67.0292C32.6356 67.9468 26.1476 67.0057 20.312 64.3193C14.4764 61.6329 9.54236 57.3161 6.10467 51.889C2.66699 46.462 0.872405 40.1564 0.937244 33.7325C1.00208 27.3086 2.92358 21.0406 6.4701 15.6841C10.0166 10.3275 15.0368 6.11109 20.9254 3.54307C26.814 0.97506 33.3197 0.165055 39.6583 1.21075C45.9968 2.25645 51.8976 5.11323 56.6493 9.43663C73.1042 24.328 94.5192 32.5508 116.712 32.499H163.357C176.522 32.7357 189.494 29.3062 200.822 22.5939ZM55.8876 34.0044C55.8876 46.1564 46.0364 56.0075 33.8845 56.0075C21.7325 56.0075 11.8813 46.1564 11.8813 34.0044C11.8813 21.8524 21.7325 12.0013 33.8845 12.0013C46.0364 12.0013 55.8876 21.8524 55.8876 34.0044ZM208.999 37.5996C211.144 37.5996 212.883 35.8607 212.883 33.7156C212.883 31.5706 211.144 29.8316 208.999 29.8316C206.854 29.8316 205.115 31.5706 205.115 33.7156C205.115 35.8607 206.854 37.5996 208.999 37.5996Z" fill="#262626"/>
</svg>
