<svg width="222" height="68" viewBox="0 0 222 68" fill="none" xmlns="http://www.w3.org/2000/svg">
<path d="M33.1714 40.0068H35.2183V29.6709C35.2183 29.4365 35.1479 29.2282 35.0073 29.0459C34.8667 28.8636 34.687 28.7412 34.4683 28.6787C34.2391 28.6214 34.0177 28.6344 33.8042 28.7178C33.5959 28.8011 33.4318 28.9417 33.312 29.1396L28.687 37.1787L24.062 29.1396C24.0047 29.0407 23.9344 28.9574 23.8511 28.8896C23.7677 28.8167 23.674 28.762 23.5698 28.7256C23.4709 28.6839 23.3667 28.6605 23.2573 28.6553C23.1479 28.6449 23.0386 28.6527 22.9292 28.6787C22.7052 28.7412 22.5229 28.8636 22.3823 29.0459C22.2469 29.2282 22.1792 29.4365 22.1792 29.6709V40.0068H24.2104V33.335L27.8276 39.6709C27.9162 39.8324 28.036 39.9548 28.187 40.0381C28.3433 40.1214 28.5099 40.1631 28.687 40.1631C28.8693 40.1631 29.0386 40.1214 29.1948 40.0381C29.3563 39.9548 29.4813 39.8324 29.5698 39.6709L33.1714 33.335V40.0068Z" fill="#FFD700"/>

<path d="M46.2108 38.4912C46.4035 38.1266 46.4998 37.6813 46.4998 37.1553V31.6553C46.4998 31.4678 46.4764 31.2673 46.4295 31.0537C46.3878 30.835 46.3201 30.6214 46.2264 30.4131C46.1326 30.1995 46.0102 29.9964 45.8592 29.8037C45.7082 29.611 45.5259 29.4417 45.3123 29.2959C45.104 29.1449 44.8618 29.0251 44.5858 28.9365C44.3097 28.848 43.9972 28.8037 43.6483 28.8037H37.1326V30.835H43.6483C44.1899 30.835 44.4608 31.1136 44.4608 31.6709V33.3818H37.1326V35.4287H44.4608V37.1553C44.4608 37.4209 44.3931 37.624 44.2576 37.7646C44.1274 37.9053 43.9243 37.9756 43.6483 37.9756H37.1326V40.0068H43.6483C43.9347 40.0068 44.2446 39.9574 44.5779 39.8584C44.9113 39.7594 45.2186 39.598 45.4998 39.374C45.7863 39.1449 46.0233 38.8506 46.2108 38.4912Z" fill="#FFD700"/>
<path fill-rule="evenodd" clip-rule="evenodd" d="M200.157 22.4296C202.526 20.963 205.292 20.2682 208.074 20.4411C210.102 20.5787 212.072 21.1728 213.838 22.1788C215.604 23.1849 217.12 24.577 218.273 26.2511C219.425 27.9253 220.185 29.8383 220.494 31.8471C220.804 33.8559 220.656 35.9088 220.061 37.8522C219.465 39.7957 218.439 41.5796 217.058 43.0707C215.676 44.5618 213.976 45.7215 212.084 46.4632C210.191 47.205 208.156 47.5096 206.129 47.3543C204.103 47.1989 202.137 46.5877 200.38 45.5663C189.673 39.1016 177.429 35.6236 164.922 35.4939H116.066C93.6888 35.7241 72.1581 44.0788 55.4828 59.0023C50.6439 63.2261 44.6869 65.9605 38.3294 66.8759C31.9719 67.7913 25.4854 66.8487 19.6514 64.1616C13.8175 61.4745 8.88507 57.1577 5.44858 51.7313C2.01208 46.3049 0.218143 40.0005 0.282946 33.5778C0.347749 27.1551 2.26852 20.8882 5.81381 15.5323C9.35909 10.1763 14.3776 5.9599 20.2646 3.39111C26.1516 0.822313 32.6558 0.0107626 38.9935 1.05425C45.3312 2.09774 51.2319 4.95174 55.9846 9.27233C72.4395 24.1637 93.8545 32.3864 116.047 32.3347H162.692C175.857 32.5714 188.829 29.1419 200.157 22.4296ZM55.2226 33.8586C55.2226 46.0106 45.3715 55.8617 33.2195 55.8617C21.0675 55.8617 11.2164 46.0106 11.2164 33.8586C11.2164 21.7066 21.0675 11.8555 33.2195 11.8555C45.3715 11.8555 55.2226 21.7066 55.2226 33.8586Z" fill="#FFD700"/>
</svg>
