<svg width="221" height="67" viewBox="0 0 221 67" fill="none" xmlns="http://www.w3.org/2000/svg">
<path d="M32.2358 39.2471H34.2827V28.9111C34.2827 28.6768 34.2124 28.4684 34.0718 28.2861C33.9312 28.1038 33.7515 27.9814 33.5327 27.9189C33.3035 27.8617 33.0822 27.8747 32.8687 27.958C32.6603 28.0413 32.4963 28.182 32.3765 28.3799L27.7515 36.4189L23.1265 28.3799C23.0692 28.2809 22.9989 28.1976 22.9155 28.1299C22.8322 28.057 22.7384 28.0023 22.6343 27.9658C22.5353 27.9242 22.4312 27.9007 22.3218 27.8955C22.2124 27.8851 22.103 27.8929 21.9937 27.9189C21.7697 27.9814 21.5874 28.1038 21.4468 28.2861C21.3114 28.4684 21.2437 28.6768 21.2437 28.9111V39.2471H23.2749V32.5752L26.8921 38.9111C26.9806 39.0726 27.1004 39.195 27.2515 39.2783C27.4077 39.3617 27.5744 39.4033 27.7515 39.4033C27.9338 39.4033 28.103 39.3617 28.2593 39.2783C28.4207 39.195 28.5457 39.0726 28.6343 38.9111L32.2358 32.5752V39.2471Z" fill="#262626"/>
//number 4
<path d="M44.2362 39.2471H46.283V28.0439H44.2362V32.6221H38.0252V28.0439H35.994V33.6455C35.994 33.7861 36.02 33.9189 36.0721 34.0439C36.1242 34.1689 36.1945 34.2783 36.283 34.3721C36.3768 34.4606 36.4862 34.5335 36.6112 34.5908C36.7362 34.6429 36.8716 34.6689 37.0174 34.6689H44.2362V39.2471Z" fill="#262626"/>
<path fill-rule="evenodd" clip-rule="evenodd" d="M199.886 21.8341C202.252 20.3582 205.021 19.6627 207.803 19.8456C209.845 19.9627 211.834 20.5427 213.619 21.5415C215.404 22.5403 216.938 23.9319 218.106 25.611C219.274 27.2902 220.045 29.2129 220.361 31.2338C220.676 33.2548 220.528 35.321 219.928 37.2763C219.327 39.2316 218.29 41.0248 216.894 42.5202C215.499 44.0156 213.782 45.1742 211.872 45.9082C209.963 46.6423 207.912 46.9327 205.874 46.7574C203.836 46.5821 201.865 45.9458 200.109 44.8965C189.395 38.4578 177.151 35.0056 164.651 34.8984H115.795C93.4217 35.1303 71.8936 43.4774 55.212 58.3883C50.374 62.6149 44.4167 65.3519 38.0584 66.2695C31.7 67.187 25.212 66.2459 19.3764 63.5595C13.5408 60.8732 8.60681 56.5563 5.16913 51.1292C1.73145 45.7022 -0.0631423 39.3966 0.00169688 32.9728C0.0665361 26.5489 1.98803 20.2809 5.53456 14.9243C9.08109 9.56776 14.1012 5.35132 19.9899 2.78331C25.8785 0.215295 32.3842 -0.59471 38.7227 0.450988C45.0613 1.49669 50.9621 4.35346 55.7138 8.67686C72.1687 23.5682 93.5836 31.791 115.776 31.7392H162.421C175.587 31.976 188.558 28.5464 199.886 21.8341ZM54.952 33.2447C54.952 45.3966 45.1009 55.2478 32.9489 55.2478C20.7969 55.2478 10.9458 45.3966 10.9458 33.2447C10.9458 21.0927 20.7969 11.2416 32.9489 11.2416C45.1009 11.2416 54.952 21.0927 54.952 33.2447ZM208.064 36.8399C210.209 36.8399 211.947 35.1009 211.947 32.9559C211.947 30.8108 210.209 29.0719 208.064 29.0719C205.918 29.0719 204.179 30.8108 204.179 32.9559C204.179 35.1009 205.918 36.8399 208.064 36.8399Z" fill="#262626"/>
</svg>
