<svg width="221" height="67" viewBox="0 0 221 67" fill="none" xmlns="http://www.w3.org/2000/svg">
<path d="M32.2358 39.2471H34.2827V28.9111C34.2827 28.6768 34.2124 28.4684 34.0718 28.2861C33.9312 28.1038 33.7515 27.9814 33.5327 27.9189C33.3035 27.8617 33.0822 27.8747 32.8687 27.958C32.6603 28.0413 32.4963 28.182 32.3765 28.3799L27.7515 36.4189L23.1265 28.3799C23.0692 28.2809 22.9989 28.1976 22.9155 28.1299C22.8322 28.057 22.7384 28.0023 22.6343 27.9658C22.5353 27.9242 22.4312 27.9007 22.3218 27.8955C22.2124 27.8851 22.103 27.8929 21.9937 27.9189C21.7697 27.9814 21.5874 28.1038 21.4468 28.2861C21.3114 28.4684 21.2437 28.6768 21.2437 28.9111V39.2471H23.2749V32.5752L26.8921 38.9111C26.9806 39.0726 27.1004 39.195 27.2515 39.2783C27.4077 39.3617 27.5744 39.4033 27.7515 39.4033C27.9338 39.4033 28.103 39.3617 28.2593 39.2783C28.4207 39.195 28.5457 39.0726 28.6343 38.9111L32.2358 32.5752V39.2471Z" fill="#FFD700"/>

<path d="M44.2362 39.2471H46.283V28.0439H44.2362V32.6221H38.0252V28.0439H35.994V33.6455C35.994 33.7861 36.02 33.9189 36.0721 34.0439C36.1242 34.1689 36.1945 34.2783 36.283 34.3721C36.3768 34.4606 36.4862 34.5335 36.6112 34.5908C36.7362 34.6429 36.8716 34.6689 37.0174 34.6689H44.2362V39.2471Z" fill="#FFD700"/>
<path fill-rule="evenodd" clip-rule="evenodd" d="M200.157 22.4296C202.526 20.963 205.292 20.2682 208.074 20.4411C210.102 20.5787 212.072 21.1728 213.838 22.1788C215.604 23.1849 217.12 24.577 218.273 26.2511C219.425 27.9253 220.185 29.8383 220.494 31.8471C220.804 33.8559 220.656 35.9088 220.061 37.8522C219.465 39.7957 218.439 41.5796 217.058 43.0707C215.676 44.5618 213.976 45.7215 212.084 46.4632C210.191 47.205 208.156 47.5096 206.129 47.3543C204.103 47.1989 202.137 46.5877 200.38 45.5663C189.673 39.1016 177.429 35.6236 164.922 35.4939H116.066C93.6888 35.7241 72.1581 44.0788 55.4828 59.0023C50.6439 63.2261 44.6869 65.9605 38.3294 66.8759C31.9719 67.7913 25.4854 66.8487 19.6514 64.1616C13.8175 61.4745 8.88507 57.1577 5.44858 51.7313C2.01208 46.3049 0.218143 40.0005 0.282946 33.5778C0.347749 27.1551 2.26852 20.8882 5.81381 15.5323C9.35909 10.1763 14.3776 5.9599 20.2646 3.39111C26.1516 0.822313 32.6558 0.0107626 38.9935 1.05425C45.3312 2.09774 51.2319 4.95174 55.9846 9.27233C72.4395 24.1637 93.8545 32.3864 116.047 32.3347H162.692C175.857 32.5714 188.829 29.1419 200.157 22.4296ZM55.2226 33.8586C55.2226 46.0106 45.3715 55.8617 33.2195 55.8617C21.0675 55.8617 11.2164 46.0106 11.2164 33.8586C11.2164 21.7066 21.0675 11.8555 33.2195 11.8555C45.3715 11.8555 55.2226 21.7066 55.2226 33.8586Z" fill="#FFD700"/>
</svg>
