<svg width="221" height="67" viewBox="0 0 221 67" fill="none" xmlns="http://www.w3.org/2000/svg">
<path d="M33.2358 39.2402H35.2827V28.9043C35.2827 28.6699 35.2124 28.4616 35.0718 28.2793C34.9312 28.097 34.7515 27.9746 34.5327 27.9121C34.3035 27.8548 34.0822 27.8678 33.8687 27.9512C33.6603 28.0345 33.4963 28.1751 33.3765 28.373L28.7515 36.4121L24.1265 28.373C24.0692 28.2741 23.9989 28.1908 23.9155 28.123C23.8322 28.0501 23.7384 27.9954 23.6343 27.959C23.5353 27.9173 23.4312 27.8939 23.3218 27.8887C23.2124 27.8783 23.103 27.8861 22.9937 27.9121C22.7697 27.9746 22.5874 28.097 22.4468 28.2793C22.3114 28.4616 22.2437 28.6699 22.2437 28.9043V39.2402H24.2749V32.5684L27.8921 38.9043C27.9806 39.0658 28.1004 39.1882 28.2515 39.2715C28.4077 39.3548 28.5744 39.3965 28.7515 39.3965C28.9338 39.3965 29.103 39.3548 29.2593 39.2715C29.4207 39.1882 29.5457 39.0658 29.6343 38.9043L33.2358 32.5684V39.2402Z" fill="#262626"/>
<path fill-rule="evenodd" clip-rule="evenodd" d="M44.5408 32.6152H39.1346V31.8027C39.1346 31.5475 39.1763 31.3184 39.2596 31.1152C39.3429 30.9069 39.4601 30.7298 39.6112 30.584C39.7622 30.4382 39.9419 30.321 40.1502 30.2324C40.3638 30.1439 40.6007 30.0892 40.8612 30.0684H45.9549V28.0371H40.8612C40.6112 28.0371 40.3429 28.0658 40.0565 28.123C39.7752 28.1803 39.4966 28.2741 39.2205 28.4043C38.9445 28.5293 38.6763 28.6908 38.4158 28.8887C38.1606 29.0866 37.9367 29.3262 37.744 29.6074C37.5513 29.8835 37.395 30.2038 37.2752 30.5684C37.1606 30.9329 37.1033 31.3444 37.1033 31.8027V35.4824C37.1033 35.9408 37.1606 36.3522 37.2752 36.7168C37.395 37.0814 37.5513 37.4043 37.744 37.6855C37.9367 37.9616 38.1606 38.1986 38.4158 38.3965C38.6763 38.5892 38.9445 38.7507 39.2205 38.8809C39.4966 39.0059 39.7752 39.097 40.0565 39.1543C40.3429 39.2116 40.6112 39.2402 40.8612 39.2402H44.5408C44.8898 39.2402 45.2023 39.196 45.4783 39.1074C45.7544 39.0189 45.9966 38.9017 46.2049 38.7559C46.4184 38.6048 46.5981 38.4329 46.744 38.2402C46.895 38.0475 47.0174 37.847 47.1112 37.6387C47.2101 37.4251 47.2804 37.2116 47.3221 36.998C47.369 36.7845 47.3924 36.5814 47.3924 36.3887V35.4824C47.3924 34.9564 47.296 34.5111 47.1033 34.1465C46.9158 33.7819 46.6789 33.4876 46.3924 33.2637C46.1059 33.0345 45.796 32.8704 45.4627 32.7715C45.1346 32.6673 44.8273 32.6152 44.5408 32.6152ZM39.1346 35.4824V34.6621H44.5252C44.8013 34.6621 45.007 34.7324 45.1424 34.873C45.2778 35.0137 45.3455 35.2168 45.3455 35.4824V36.3887C45.3455 36.623 45.2752 36.8184 45.1346 36.9746C44.9992 37.1309 44.8013 37.209 44.5408 37.209H40.8768C40.632 37.209 40.4028 37.1699 40.1893 37.0918C39.9809 37.0085 39.7987 36.8913 39.6424 36.7402C39.4862 36.5892 39.3612 36.4095 39.2674 36.2012C39.1789 35.9876 39.1346 35.748 39.1346 35.4824Z" fill="#262626"/>
<path fill-rule="evenodd" clip-rule="evenodd" d="M199.886 21.8273C202.252 20.3514 205.021 19.6558 207.803 19.8388C209.845 19.9559 211.834 20.5358 213.619 21.5346C215.404 22.5334 216.938 23.925 218.106 25.6042C219.274 27.2833 220.045 29.206 220.361 31.227C220.676 33.2479 220.528 35.3142 219.928 37.2695C219.327 39.2248 218.29 41.0179 216.894 42.5134C215.499 44.0088 213.782 45.1673 211.872 45.9014C209.963 46.6355 207.912 46.9259 205.874 46.7506C203.836 46.5753 201.865 45.939 200.109 44.8896C189.395 38.451 177.151 34.9988 164.651 34.8916H115.795C93.4217 35.1234 71.8936 43.4705 55.212 58.3814C50.374 62.608 44.4167 65.3451 38.0584 66.2626C31.7 67.1802 25.212 66.2391 19.3764 63.5527C13.5408 60.8663 8.60681 56.5495 5.16913 51.1224C1.73145 45.6954 -0.0631423 39.3898 0.00169688 32.9659C0.0665361 26.542 1.98803 20.274 5.53456 14.9175C9.08109 9.56092 14.1012 5.34449 19.9899 2.77647C25.8785 0.208459 32.3842 -0.601546 38.7227 0.444152C45.0613 1.48985 50.9621 4.34663 55.7138 8.67003C72.1687 23.5614 93.5836 31.7842 115.776 31.7324H162.421C175.587 31.9691 188.558 28.5396 199.886 21.8273ZM54.952 33.2378C54.952 45.3898 45.1009 55.2409 32.9489 55.2409C20.7969 55.2409 10.9458 45.3898 10.9458 33.2378C10.9458 21.0858 20.7969 11.2347 32.9489 11.2347C45.1009 11.2347 54.952 21.0858 54.952 33.2378ZM208.064 36.833C210.209 36.833 211.947 35.0941 211.947 32.949C211.947 30.804 210.209 29.065 208.064 29.065C205.918 29.065 204.179 30.804 204.179 32.949C204.179 35.0941 205.918 36.833 208.064 36.833Z" fill="#262626"/>
</svg>
