
<svg width="221" height="67" viewBox="0 0 221 67" fill="none" xmlns="http://www.w3.org/2000/svg">
<path d="M33.2358 39.2402H35.2827V28.9043C35.2827 28.6699 35.2124 28.4616 35.0718 28.2793C34.9312 28.097 34.7515 27.9746 34.5327 27.9121C34.3035 27.8548 34.0822 27.8678 33.8687 27.9512C33.6603 28.0345 33.4963 28.1751 33.3765 28.373L28.7515 36.4121L24.1265 28.373C24.0692 28.2741 23.9989 28.1908 23.9155 28.123C23.8322 28.0501 23.7384 27.9954 23.6343 27.959C23.5353 27.9173 23.4312 27.8939 23.3218 27.8887C23.2124 27.8783 23.103 27.8861 22.9937 27.9121C22.7697 27.9746 22.5874 28.097 22.4468 28.2793C22.3114 28.4616 22.2437 28.6699 22.2437 28.9043V39.2402H24.2749V32.5684L27.8921 38.9043C27.9806 39.0658 28.1004 39.1882 28.2515 39.2715C28.4077 39.3548 28.5744 39.3965 28.7515 39.3965C28.9338 39.3965 29.103 39.3548 29.2593 39.2715C29.4207 39.1882 29.5457 39.0658 29.6343 38.9043L33.2358 32.5684V39.2402Z" fill="#FFD700"/>
<path fill-rule="evenodd" clip-rule="evenodd" d="M44.5408 32.6152H39.1346V31.8027C39.1346 31.5475 39.1763 31.3184 39.2596 31.1152C39.3429 30.9069 39.4601 30.7298 39.6112 30.584C39.7622 30.4382 39.9419 30.321 40.1502 30.2324C40.3638 30.1439 40.6007 30.0892 40.8612 30.0684H45.9549V28.0371H40.8612C40.6112 28.0371 40.3429 28.0658 40.0565 28.123C39.7752 28.1803 39.4966 28.2741 39.2205 28.4043C38.9445 28.5293 38.6763 28.6908 38.4158 28.8887C38.1606 29.0866 37.9367 29.3262 37.744 29.6074C37.5513 29.8835 37.395 30.2038 37.2752 30.5684C37.1606 30.9329 37.1033 31.3444 37.1033 31.8027V35.4824C37.1033 35.9408 37.1606 36.3522 37.2752 36.7168C37.395 37.0814 37.5513 37.4043 37.744 37.6855C37.9367 37.9616 38.1606 38.1986 38.4158 38.3965C38.6763 38.5892 38.9445 38.7507 39.2205 38.8809C39.4966 39.0059 39.7752 39.097 40.0565 39.1543C40.3429 39.2116 40.6112 39.2402 40.8612 39.2402H44.5408C44.8898 39.2402 45.2023 39.196 45.4783 39.1074C45.7544 39.0189 45.9966 38.9017 46.2049 38.7559C46.4184 38.6048 46.5981 38.4329 46.744 38.2402C46.895 38.0475 47.0174 37.847 47.1112 37.6387C47.2101 37.4251 47.2804 37.2116 47.3221 36.998C47.369 36.7845 47.3924 36.5814 47.3924 36.3887V35.4824C47.3924 34.9564 47.296 34.5111 47.1033 34.1465C46.9158 33.7819 46.6789 33.4876 46.3924 33.2637C46.1059 33.0345 45.796 32.8704 45.4627 32.7715C45.1346 32.6673 44.8273 32.6152 44.5408 32.6152ZM39.1346 35.4824V34.6621H44.5252C44.8013 34.6621 45.007 34.7324 45.1424 34.873C45.2778 35.0137 45.3455 35.2168 45.3455 35.4824V36.3887C45.3455 36.623 45.2752 36.8184 45.1346 36.9746C44.9992 37.1309 44.8013 37.209 44.5408 37.209H40.8768C40.632 37.209 40.4028 37.1699 40.1893 37.0918C39.9809 37.0085 39.7987 36.8913 39.6424 36.7402C39.4862 36.5892 39.3612 36.4095 39.2674 36.2012C39.1789 35.9876 39.1346 35.748 39.1346 35.4824Z" fill="#FFD700"/>
<path fill-rule="evenodd" clip-rule="evenodd" d="M200.157 22.4296C202.526 20.963 205.292 20.2682 208.074 20.4411C210.102 20.5787 212.072 21.1728 213.838 22.1788C215.604 23.1849 217.12 24.577 218.273 26.2511C219.425 27.9253 220.185 29.8383 220.494 31.8471C220.804 33.8559 220.656 35.9088 220.061 37.8522C219.465 39.7957 218.439 41.5796 217.058 43.0707C215.676 44.5618 213.976 45.7215 212.084 46.4632C210.191 47.205 208.156 47.5096 206.129 47.3543C204.103 47.1989 202.137 46.5877 200.38 45.5663C189.673 39.1016 177.429 35.6236 164.922 35.4939H116.066C93.6888 35.7241 72.1581 44.0788 55.4828 59.0023C50.6439 63.2261 44.6869 65.9605 38.3294 66.8759C31.9719 67.7913 25.4854 66.8487 19.6514 64.1616C13.8175 61.4745 8.88507 57.1577 5.44858 51.7313C2.01208 46.3049 0.218143 40.0005 0.282946 33.5778C0.347749 27.1551 2.26852 20.8882 5.81381 15.5323C9.35909 10.1763 14.3776 5.9599 20.2646 3.39111C26.1516 0.822313 32.6558 0.0107626 38.9935 1.05425C45.3312 2.09774 51.2319 4.95174 55.9846 9.27233C72.4395 24.1637 93.8545 32.3864 116.047 32.3347H162.692C175.857 32.5714 188.829 29.1419 200.157 22.4296ZM55.2226 33.8586C55.2226 46.0106 45.3715 55.8617 33.2195 55.8617C21.0675 55.8617 11.2164 46.0106 11.2164 33.8586C11.2164 21.7066 21.0675 11.8555 33.2195 11.8555C45.3715 11.8555 55.2226 21.7066 55.2226 33.8586Z" fill="#FFD700"/>
</svg>
