<svg width="18" height="17" viewBox="0 0 18 17" fill="none" xmlns="http://www.w3.org/2000/svg">
<path d="M10.1607 0.375C9.51967 0.375 9 0.894669 9 1.53571C9 2.17676 9.51967 2.69643 10.1607 2.69643H13.1621L5.85782 10.0007C5.40454 10.454 5.40454 11.1889 5.85782 11.6422C6.31111 12.0955 7.04603 12.0955 7.49932 11.6422L14.8036 4.33793V7.33929C14.8036 7.98033 15.3232 8.5 15.9643 8.5C16.6053 8.5 17.125 7.98033 17.125 7.33929V1.53571C17.125 0.894669 16.6053 0.375 15.9643 0.375H10.1607Z" fill="#111827"/>
<path d="M3.19643 2.69643C1.91434 2.69643 0.875 3.73577 0.875 5.01786V14.3036C0.875 15.5857 1.91434 16.625 3.19643 16.625H12.4821C13.7642 16.625 14.8036 15.5857 14.8036 14.3036V10.8214C14.8036 10.1804 14.2839 9.66071 13.6429 9.66071C13.0018 9.66071 12.4821 10.1804 12.4821 10.8214V14.3036H3.19643V5.01786L6.67857 5.01786C7.31962 5.01786 7.83929 4.49819 7.83929 3.85714C7.83929 3.2161 7.31962 2.69643 6.67857 2.69643H3.19643Z" fill="#111827"/>
</svg>
