<svg width="185" height="1416" viewBox="0 0 185 1416" fill="none" xmlns="http://www.w3.org/2000/svg">
<path d="M25.1354 514.7C27.7325 508.555 31.5968 503.027 36.4759 498.477C45.8431 490.034 58.0608 485.452 70.6699 485.655H114.304C151.992 485.655 183.139 455.493 183.77 418.326C183.951 408.951 182.196 399.64 178.615 390.974C175.034 382.309 169.703 374.476 162.957 367.964C149.495 355.322 131.655 348.393 113.189 348.637H70.0753C58.8707 348.669 47.9977 344.837 39.2904 337.785C30.5831 330.733 24.5745 320.894 22.278 309.927C21.7407 307.227 21.4483 304.484 21.4045 301.732C21.2694 295.062 22.5418 288.439 25.1387 282.294C27.7356 276.149 31.5986 270.621 36.4759 266.069C45.8347 257.606 58.0533 253.004 70.6699 253.191H114.304C151.992 253.191 183.139 223.03 183.77 185.862C183.951 176.488 182.196 167.176 178.615 158.511C175.034 149.845 169.703 142.012 162.957 135.5C149.486 122.878 131.647 115.971 113.189 116.229H70.0753C43.705 116.229 21.8506 95.1923 21.4045 69.3238C21.27 62.6597 22.5428 56.0422 25.1398 49.9035C27.7368 43.7648 31.5996 38.2431 36.4759 33.6988C45.823 25.2142 58.0478 20.6033 70.6699 20.8018H81.8202C84.5017 20.6884 87.0358 19.5433 88.8931 17.6058C90.7504 15.6683 91.7874 13.0881 91.7874 10.4042C91.7874 7.72022 90.7504 5.14005 88.8931 3.20253C87.0358 1.26501 84.5017 0.119986 81.8202 0.00659324H71.1903C52.7339 -0.244099 34.8975 6.66266 21.4231 19.2779C14.6766 25.7895 9.34607 33.623 5.76476 42.2885C2.18345 50.9539 0.428407 60.2651 0.609378 69.6397C1.31556 106.77 32.3875 136.968 70.0753 136.968H113.71C126.328 136.771 138.551 141.374 147.904 149.847C152.777 154.395 156.639 159.917 159.239 166.054C161.838 172.192 163.118 178.808 162.994 185.472C162.622 211.34 140.731 232.377 114.304 232.377H71.1903C52.7287 232.137 34.8917 239.057 21.4231 251.686C14.6766 258.197 9.34607 266.031 5.76476 274.696C2.18345 283.362 0.428407 292.673 0.609378 302.048C0.647535 304.671 0.846132 307.29 1.20406 309.89C3.61689 326.426 11.9069 341.539 24.5554 352.461C37.204 363.382 53.3641 369.381 70.0753 369.358H113.71C126.327 369.167 138.547 373.77 147.904 382.236C152.778 386.783 156.64 392.305 159.24 398.443C161.84 404.581 163.119 411.197 162.994 417.861C162.622 443.73 140.731 464.766 114.304 464.766H71.1903C52.7287 464.526 34.8917 471.446 21.4231 484.075C14.6766 490.587 9.34607 498.42 5.76476 507.085C2.18345 515.751 0.428407 525.062 0.609378 534.437C1.31556 571.567 32.3875 601.766 70.0753 601.766H113.71C126.328 601.568 138.551 606.171 147.904 614.644C152.778 619.191 156.64 624.713 159.24 630.851C161.84 636.988 163.119 643.604 162.994 650.269C162.622 676.138 140.731 697.156 114.304 697.156H79.4972C78.0948 697.096 76.6949 697.321 75.3817 697.817C75.219 697.879 75.058 697.944 74.8989 698.013H71.5936C53.1372 697.763 35.3008 704.669 21.8265 717.285C15.0799 723.796 9.74939 731.63 6.16808 740.295C2.58677 748.961 0.831727 758.272 1.0127 767.647C1.71888 804.777 32.7908 834.975 70.4786 834.975H114.113C126.732 834.777 138.954 839.381 148.307 847.854C153.18 852.401 157.042 857.923 159.642 864.061C162.242 870.199 163.521 876.814 163.397 883.479C163.025 909.347 141.134 930.384 114.708 930.384H71.5936C53.132 930.143 35.295 937.064 21.8265 949.693C15.0799 956.204 9.74939 964.038 6.16808 972.703C2.58677 981.369 0.831727 990.68 1.0127 1000.05C1.05086 1002.68 1.24945 1005.3 1.60738 1007.9C4.02021 1024.43 12.3102 1039.55 24.9588 1050.47C37.6073 1061.39 53.7674 1067.39 70.4786 1067.36H114.113C126.73 1067.17 138.95 1071.78 148.307 1080.24C153.181 1084.79 157.044 1090.31 159.644 1096.45C162.243 1102.59 163.522 1109.2 163.397 1115.87C163.025 1141.74 141.134 1162.77 114.708 1162.77H71.5936C53.132 1162.53 35.295 1169.45 21.8265 1182.08C15.0799 1188.59 9.74939 1196.43 6.16808 1205.09C2.58677 1213.76 0.831727 1223.07 1.0127 1232.44C1.71888 1269.57 32.7908 1299.77 70.4786 1299.77H114.113C126.732 1299.57 138.954 1304.18 148.307 1312.65C153.181 1317.2 157.044 1322.72 159.644 1328.86C162.243 1335 163.522 1341.61 163.397 1348.28C163.025 1374.14 141.134 1395.16 114.708 1395.16H79.9005C78.4981 1395.1 77.0982 1395.33 75.785 1395.82C74.4718 1396.32 73.2725 1397.08 72.2592 1398.05C71.2459 1399.02 70.4396 1400.19 69.8888 1401.48C69.3379 1402.77 69.054 1404.16 69.054 1405.56C69.054 1406.96 69.3379 1408.35 69.8888 1409.64C70.4396 1410.94 71.2459 1412.1 72.2592 1413.07C73.2725 1414.04 74.4718 1414.8 75.785 1415.3C77.0982 1415.79 78.4981 1416.02 79.9005 1415.96H114.708C152.396 1415.96 183.542 1385.8 184.174 1348.63C184.355 1339.25 182.6 1329.94 179.018 1321.28C175.437 1312.61 170.106 1304.78 163.36 1298.27C149.883 1285.66 132.045 1278.77 113.593 1279.03H70.4786C44.1083 1279.03 22.2539 1258.01 21.8079 1232.15C21.6704 1225.48 22.9417 1218.85 25.5388 1212.71C28.1358 1206.56 32.0001 1201.03 36.8792 1196.48C46.2464 1188.04 58.4641 1183.46 71.0733 1183.66H114.708C152.396 1183.66 183.542 1153.5 184.174 1116.33C184.355 1106.96 182.6 1097.65 179.018 1088.98C175.437 1080.32 170.106 1072.48 163.36 1065.97C149.899 1053.33 132.058 1046.4 113.593 1046.64H70.4786C59.274 1046.68 48.401 1042.84 39.6937 1035.79C30.9864 1028.74 24.9778 1018.9 22.6813 1007.93C22.144 1005.23 21.8517 1002.49 21.8079 999.738C21.6727 993.069 22.9451 986.446 25.542 980.301C28.1389 974.156 32.002 968.628 36.8792 964.076C46.238 955.613 58.4566 951.011 71.0733 951.198H114.708C152.396 951.198 183.542 921.036 184.174 883.869C184.355 874.494 182.6 865.183 179.018 856.518C175.437 847.852 170.106 840.019 163.36 833.507C149.89 820.885 132.051 813.977 113.593 814.236H70.4786C44.1083 814.236 22.2539 793.199 21.8079 767.331C21.6733 760.667 22.9461 754.049 25.5431 747.91C28.1402 741.772 32.003 736.25 36.8792 731.706C46.2263 723.221 58.4512 718.61 71.0733 718.809H82.2235C83.5173 718.754 84.7769 718.459 85.9426 717.951H114.304C151.992 717.951 183.139 687.789 183.77 650.622C183.951 641.247 182.196 631.936 178.615 623.271C175.034 614.605 169.703 606.772 162.957 600.26C149.48 587.654 131.642 580.76 113.189 581.026H70.0753C43.705 581.026 21.8506 560.008 21.4045 534.139C21.2671 527.469 22.5384 520.846 25.1354 514.7Z" fill="#262626"/>
</svg>
