<svg width="184" height="179" viewBox="0 0 184 179" fill="none" xmlns="http://www.w3.org/2000/svg">
<g clip-path="url(#clip0_971_13888)">
<mask id="mask0_971_13888" style="mask-type:alpha" maskUnits="userSpaceOnUse" x="0" y="-1241" width="184" height="1416">
<path d="M24.5388 -726.3C27.1358 -732.445 31.0001 -737.973 35.8792 -742.523C45.2464 -750.966 57.4641 -755.548 70.0733 -755.345H113.708C151.396 -755.345 182.542 -785.507 183.174 -822.674C183.355 -832.049 181.6 -841.36 178.018 -850.026C174.437 -858.691 169.106 -866.524 162.36 -873.036C148.899 -885.678 131.058 -892.607 112.593 -892.363H69.4786C58.274 -892.331 47.401 -896.163 38.6937 -903.215C29.9864 -910.267 23.9778 -920.106 21.6813 -931.073C21.144 -933.773 20.8517 -936.516 20.8079 -939.268C20.6727 -945.938 21.9451 -952.561 24.542 -958.706C27.1389 -964.851 31.002 -970.379 35.8792 -974.931C45.238 -983.394 57.4566 -987.996 70.0733 -987.809H113.708C151.396 -987.809 182.542 -1017.97 183.174 -1055.14C183.355 -1064.51 181.6 -1073.82 178.018 -1082.49C174.437 -1091.15 169.106 -1098.99 162.36 -1105.5C148.89 -1118.12 131.051 -1125.03 112.593 -1124.77H69.4786C43.1083 -1124.77 21.2539 -1145.81 20.8079 -1171.68C20.6733 -1178.34 21.9461 -1184.96 24.5431 -1191.1C27.1402 -1197.24 31.003 -1202.76 35.8792 -1207.3C45.2263 -1215.79 57.4512 -1220.4 70.0733 -1220.2H81.2235C83.905 -1220.31 86.4391 -1221.46 88.2964 -1223.39C90.1538 -1225.33 91.1907 -1227.91 91.1907 -1230.6C91.1907 -1233.28 90.1538 -1235.86 88.2964 -1237.8C86.4391 -1239.73 83.905 -1240.88 81.2235 -1240.99H70.5936C52.1372 -1241.24 34.3008 -1234.34 20.8265 -1221.72C14.0799 -1215.21 8.74939 -1207.38 5.16808 -1198.71C1.58677 -1190.05 -0.168273 -1180.73 0.0126986 -1171.36C0.718879 -1134.23 31.7908 -1104.03 69.4786 -1104.03H113.113C125.732 -1104.23 137.954 -1099.63 147.307 -1091.15C152.18 -1086.61 156.042 -1081.08 158.642 -1074.95C161.242 -1068.81 162.521 -1062.19 162.397 -1055.53C162.025 -1029.66 140.134 -1008.62 113.708 -1008.62H70.5936C52.132 -1008.86 34.295 -1001.94 20.8265 -989.314C14.0799 -982.803 8.74939 -974.969 5.16808 -966.304C1.58677 -957.638 -0.168273 -948.327 0.0126986 -938.952C0.0508557 -936.329 0.249452 -933.71 0.607377 -931.11C3.02021 -914.574 11.3102 -899.461 23.9588 -888.539C36.6073 -877.618 52.7674 -871.619 69.4786 -871.642H113.113C125.73 -871.833 137.95 -867.23 147.307 -858.764C152.181 -854.217 156.044 -848.695 158.644 -842.557C161.243 -836.419 162.522 -829.803 162.397 -823.139C162.025 -797.27 140.134 -776.234 113.708 -776.234H70.5936C52.132 -776.474 34.295 -769.554 20.8265 -756.925C14.0799 -750.413 8.74939 -742.58 5.16808 -733.915C1.58677 -725.249 -0.168273 -715.938 0.0126986 -706.563C0.718879 -669.433 31.7908 -639.234 69.4786 -639.234H113.113C125.732 -639.432 137.954 -634.829 147.307 -626.356C152.181 -621.809 156.044 -616.287 158.644 -610.149C161.243 -604.012 162.522 -597.396 162.397 -590.731C162.025 -564.862 140.134 -543.844 113.708 -543.844H78.9005C77.4981 -543.904 76.0982 -543.679 74.785 -543.183C74.6223 -543.121 74.4613 -543.056 74.3022 -542.987H70.9969C52.5405 -543.237 34.7041 -536.331 21.2298 -523.715C14.4833 -517.204 9.15271 -509.37 5.5714 -500.705C1.99009 -492.039 0.235047 -482.728 0.416019 -473.353C1.1222 -436.223 32.1942 -406.025 69.8819 -406.025H113.516C126.135 -406.223 138.358 -401.619 147.71 -393.146C152.584 -388.599 156.446 -383.077 159.045 -376.939C161.645 -370.801 162.924 -364.186 162.8 -357.521C162.429 -331.653 140.537 -310.616 114.111 -310.616H70.9969C52.5354 -310.857 34.6983 -303.936 21.2298 -291.307C14.4833 -284.796 9.15271 -276.962 5.5714 -268.297C1.99009 -259.631 0.235047 -250.32 0.416019 -240.946C0.454176 -238.322 0.652772 -235.703 1.0107 -233.103C3.42353 -216.567 11.7136 -201.454 24.3621 -190.532C37.0106 -179.611 53.1707 -173.612 69.8819 -173.635H113.516C126.134 -173.826 138.354 -169.224 147.71 -160.757C152.585 -156.21 156.447 -150.688 159.047 -144.55C161.647 -138.413 162.926 -131.796 162.8 -125.132C162.429 -99.2634 140.537 -78.2267 114.111 -78.2267H70.9969C52.5354 -78.4674 34.6983 -71.547 21.2298 -58.9182C14.4833 -52.4066 9.15271 -44.5731 5.5714 -35.9077C1.99009 -27.2422 0.235047 -17.931 0.416019 -8.5564C1.1222 28.5739 32.1942 58.7723 69.8819 58.7723H113.516C126.135 58.5743 138.358 63.1777 147.71 71.6509C152.585 76.1978 156.447 81.7196 159.047 87.8573C161.647 93.9951 162.926 100.611 162.8 107.276C162.429 133.144 140.537 154.162 114.111 154.162H79.3038C77.9014 154.103 76.5015 154.328 75.1883 154.824C73.8751 155.32 72.6758 156.076 71.6625 157.047C70.6492 158.019 69.8429 159.185 69.2921 160.476C68.7413 161.767 68.4573 163.156 68.4573 164.56C68.4573 165.964 68.7413 167.353 69.2921 168.644C69.8429 169.935 70.6492 171.101 71.6625 172.073C72.6758 173.044 73.8751 173.8 75.1883 174.296C76.5015 174.792 77.9014 175.017 79.3038 174.958H114.111C151.799 174.958 182.945 144.796 183.577 107.629C183.758 98.2543 182.003 88.9431 178.422 80.2776C174.84 71.6122 169.51 63.7787 162.763 57.2671C149.286 44.6604 131.448 37.7664 112.996 38.033H69.8819C43.5116 38.033 21.6572 17.0148 21.2112 -8.85376C21.0737 -15.5237 22.345 -22.1476 24.9421 -28.2927C27.5391 -34.4379 31.4034 -39.9659 36.2826 -44.5159C45.6498 -52.9591 57.8674 -57.5408 70.4766 -57.3386H114.111C151.799 -57.3386 182.945 -87.5 183.577 -124.667C183.758 -134.042 182.003 -143.353 178.422 -152.019C174.84 -160.684 169.51 -168.518 162.763 -175.029C149.302 -187.671 131.462 -194.6 112.996 -194.356H69.8819C58.6773 -194.324 47.8043 -198.157 39.097 -205.208C30.3898 -212.26 24.3811 -222.099 22.0846 -233.066C21.5473 -235.766 21.255 -238.509 21.2112 -241.262C21.0761 -247.931 22.3484 -254.554 24.9453 -260.699C27.5422 -266.844 31.4053 -272.372 36.2826 -276.924C45.6413 -285.387 57.8599 -289.989 70.4766 -289.802H114.111C151.799 -289.802 182.945 -319.964 183.577 -357.131C183.758 -366.506 182.003 -375.817 178.422 -384.482C174.84 -393.148 169.51 -400.981 162.763 -407.493C149.293 -420.115 131.454 -427.023 112.996 -426.764H69.8819C43.5116 -426.764 21.6572 -447.801 21.2112 -473.669C21.0766 -480.333 22.3494 -486.951 24.9465 -493.09C27.5435 -499.228 31.4063 -504.75 36.2826 -509.294C45.6296 -517.779 57.8545 -522.39 70.4766 -522.191H81.6268C82.9207 -522.246 84.1802 -522.541 85.3459 -523.049H113.708C151.396 -523.049 182.542 -553.211 183.174 -590.378C183.355 -599.753 181.6 -609.064 178.018 -617.729C174.437 -626.395 169.106 -634.228 162.36 -640.74C148.883 -653.346 131.045 -660.24 112.593 -659.974H69.4786C43.1083 -659.974 21.2539 -680.992 20.8079 -706.861C20.6704 -713.531 21.9417 -720.154 24.5388 -726.3Z" fill="#262626"/>
</mask>
<g mask="url(#mask0_971_13888)">
<rect x="-55" y="-4" width="294" height="179" fill="#262626"/>
</g>
</g>
<defs>
<clipPath id="clip0_971_13888">
<rect width="184" height="179" fill="white"/>
</clipPath>
</defs>
</svg>
