<svg width="184" height="310" viewBox="0 0 184 310" fill="none" xmlns="http://www.w3.org/2000/svg">
<path d="M0.609378 302.048C0.647535 304.671 0.846132 307.29 1.20406 309.89L22.278 309.927C21.7407 307.227 21.4483 304.484 21.4045 301.732C21.2694 295.062 22.5418 288.439 25.1387 282.294C27.7356 276.149 31.5986 270.621 36.4759 266.069C45.8347 257.606 58.0533 253.004 70.6699 253.191H114.304C151.992 253.191 183.139 223.03 183.77 185.862C183.951 176.488 182.196 167.176 178.615 158.511C175.034 149.845 169.703 142.012 162.957 135.5C149.486 122.878 131.647 115.971 113.189 116.229H70.0753C43.705 116.229 21.8506 95.1923 21.4045 69.3238C21.27 62.6597 22.5428 56.0422 25.1398 49.9035C27.7368 43.7648 31.5996 38.2431 36.4759 33.6988C45.823 25.2142 58.0478 20.6033 70.6699 20.8018H81.8202C84.5017 20.6884 87.0358 19.5433 88.8931 17.6058C90.7504 15.6683 91.7874 13.0881 91.7874 10.4042C91.7874 7.72022 90.7504 5.14005 88.8931 3.20253C87.0358 1.26501 84.5017 0.119986 81.8202 0.00659324H71.1903C52.7339 -0.244099 34.8975 6.66266 21.4231 19.2779C14.6766 25.7895 9.34607 33.623 5.76476 42.2885C2.18345 50.9539 0.428407 60.2651 0.609378 69.6397C1.31556 106.77 32.3875 136.968 70.0753 136.968H113.71C126.328 136.771 138.551 141.374 147.904 149.847C152.777 154.395 156.639 159.917 159.239 166.054C161.838 172.192 163.118 178.808 162.994 185.472C162.622 211.34 140.731 232.377 114.304 232.377H71.1903C52.7287 232.137 34.8917 239.057 21.4231 251.686C14.6766 258.197 9.34607 266.031 5.76476 274.696C2.18345 283.362 0.428407 292.673 0.609378 302.048Z" fill="#FFD700"/>
</svg>
